<svg xmlns="http://www.w3.org/2000/svg" viewBox="0 0 128 128" width="128" height="128">
  <!-- Background circle -->
  <circle cx="64" cy="64" r="60" fill="#2563eb" stroke="#1e40af" stroke-width="2"/>
  
  <!-- Grid pattern background -->
  <defs>
    <pattern id="grid" width="12" height="12" patternUnits="userSpaceOnUse">
      <path d="M 12 0 L 0 0 0 12" fill="none" stroke="#60a5fa" stroke-width="0.5" opacity="0.3"/>
    </pattern>
  </defs>
  
  <!-- Grid background -->
  <rect x="16" y="16" width="96" height="96" fill="url(#grid)"/>
  
  <!-- Tile panels -->
  <g fill="#ffffff" stroke="#e5e7eb" stroke-width="1">
    <!-- Large tile -->
    <rect x="24" y="24" width="32" height="24" rx="2"/>
    <!-- Small tiles -->
    <rect x="60" y="24" width="16" height="12" rx="1"/>
    <rect x="80" y="24" width="24" height="12" rx="1"/>
    <rect x="60" y="40" width="44" height="16" rx="2"/>
    <!-- Medium tiles -->
    <rect x="24" y="52" width="24" height="20" rx="2"/>
    <rect x="52" y="60" width="20" height="16" rx="1"/>
    <rect x="76" y="60" width="28" height="24" rx="2"/>
    <!-- Bottom tiles -->
    <rect x="24" y="76" width="20" height="28" rx="2"/>
    <rect x="48" y="80" width="16" height="12" rx="1"/>
    <rect x="48" y="96" width="24" height="8" rx="1"/>
    <rect x="76" y="88" width="28" height="16" rx="2"/>
  </g>
  
  <!-- Drag handles (small dots) -->
  <g fill="#9ca3af" opacity="0.7">
    <circle cx="28" cy="28" r="1"/>
    <circle cx="32" cy="28" r="1"/>
    <circle cx="64" cy="28" r="1"/>
    <circle cx="84" cy="28" r="1"/>
    <circle cx="28" cy="56" r="1"/>
    <circle cx="56" cy="64" r="1"/>
    <circle cx="80" cy="64" r="1"/>
    <circle cx="28" cy="80" r="1"/>
    <circle cx="52" cy="84" r="1"/>
    <circle cx="80" cy="92" r="1"/>
  </g>
  
  <!-- Border highlight -->
  <circle cx="64" cy="64" r="60" fill="none" stroke="#ffffff" stroke-width="1" opacity="0.2"/>
</svg>